<?xml version="1.0" encoding="UTF-8"?>
<svg xmlns="http://www.w3.org/2000/svg" width="744" height="1038" viewBox="0 0 744 1038" role="img" aria-labelledby="title desc">
  <title id="title">Marketing Campaign Dealership Wars card</title>
  <desc id="desc">Salesperson with a megaphone in front of banners and balloons.</desc>
  <defs>
    <linearGradient id="cardBg" x1="0" x2="1" y1="0" y2="1">
      <stop offset="0" stop-color="#fff8e9"/>
      <stop offset="0.5" stop-color="#f1dfbd"/>
      <stop offset="1" stop-color="#ead1ff"/>
    </linearGradient>
    <radialGradient id="spotlight" cx="66%" cy="24%" r="58%">
      <stop offset="0" stop-color="#ffffff" stop-opacity="0.72"/>
      <stop offset="1" stop-color="#ffffff" stop-opacity="0"/>
    </radialGradient>
    <filter id="shadow" x="-20%" y="-20%" width="140%" height="140%">
      <feDropShadow dx="0" dy="18" stdDeviation="18" flood-color="#3b2512" flood-opacity="0.22"/>
    </filter>
    <pattern id="grid" width="44" height="44" patternUnits="userSpaceOnUse">
      <path d="M44 0H0v44" fill="none" stroke="#2c1b10" stroke-opacity="0.08" stroke-width="2"/>
    </pattern>
  </defs>
  <rect width="744" height="1038" rx="42" fill="#22160f"/>
  <rect x="22" y="22" width="700" height="994" rx="34" fill="url(#cardBg)"/>
  <rect x="22" y="22" width="700" height="994" rx="34" fill="url(#grid)"/>
  <rect x="22" y="22" width="700" height="994" rx="34" fill="url(#spotlight)"/>
  <path d="M57 157h630v454H57z" fill="#fff4da" opacity="0.65"/>
  <path d="M57 157h630v454H57z" fill="#8d4aa8" opacity="0.1"/>
  <path d="M57 610h630" stroke="#452054" stroke-width="10"/>
  <path d="M67 158h610" stroke="#8d4aa8" stroke-width="18" stroke-linecap="round"/>
  <g filter="url(#shadow)">
    <ellipse cx="372" cy="546" rx="205" ry="36" fill="#24160d" opacity="0.18"/>
    
  <g transform="translate(184 200)">
    <path d="m188 18 43 96 99-34-33 100 96 43-96 44 33 100-99-34-43 96-44-96-99 34 33-100-96-44 96-43-33-100 99 34 44-96Z" fill="#8d4aa8" stroke="#452054" stroke-width="10"/>
    <circle cx="188" cy="223" r="92" fill="#ead1ff" opacity="0.9"/>
    <path d="M137 215h102M188 164v102" stroke="#452054" stroke-width="20" stroke-linecap="round"/>
  </g>
  </g>
  <rect x="58" y="55" width="628" height="88" rx="22" fill="#fffaf0" stroke="#452054" stroke-width="6"/>
  <rect x="72" y="68" width="150" height="62" rx="16" fill="#8d4aa8"/>
  <text x="147" y="108" text-anchor="middle" font-family="Trebuchet MS, Aptos, sans-serif" font-size="25" font-weight="900" fill="#fffaf0" letter-spacing="1">ACTION</text>
  <text x="650" y="109" text-anchor="end" font-family="Georgia, serif" font-size="42" font-weight="900" fill="#452054">2</text>
  <text x="372" y="690" text-anchor="middle" font-family="Trebuchet MS, Aptos, sans-serif" font-size="50" font-weight="900" fill="#452054">Marketing Campaign</text>
  <rect x="86" y="682" width="572" height="156" rx="24" fill="#fffaf0" stroke="#452054" stroke-opacity="0.28" stroke-width="4"/>
  <text x="372" y="726" text-anchor="middle" font-family="Trebuchet MS, Aptos, sans-serif" font-size="24" font-weight="700" fill="#24160d">Gain 2 Reputation and draw 1 card.</text>
  <path d="M105 908h534" stroke="#8d4aa8" stroke-width="9" stroke-linecap="round"/>
  <text x="372" y="944" text-anchor="middle" font-family="Trebuchet MS, Aptos, sans-serif" font-size="20" font-weight="700" fill="#5f4b3a">Get the name out there.</text>
  <text x="76" y="990" font-family="Trebuchet MS, Aptos, sans-serif" font-size="20" font-weight="900" fill="#452054" opacity="0.74">#34</text>
  <text x="668" y="990" text-anchor="end" font-family="Trebuchet MS, Aptos, sans-serif" font-size="18" font-weight="900" fill="#452054" opacity="0.58">DEALERSHIP WARS</text>
</svg>
